<mxfile host="Electron" agent="Mozilla/5.0 (Macintosh; Intel Mac OS X 10_15_7) AppleWebKit/537.36 (KHTML, like Gecko) draw.io/24.7.17 Chrome/128.0.6613.36 Electron/32.0.1 Safari/537.36" version="24.7.17">
  <diagram name="Страница — 1" id="W5sUr1vsgHJTAqXCN52E">
    <mxGraphModel dx="909" dy="562" grid="0" gridSize="10" guides="1" tooltips="1" connect="1" arrows="1" fold="1" page="1" pageScale="1" pageWidth="827" pageHeight="1169" background="none" math="0" shadow="0">
      <root>
        <mxCell id="0" />
        <mxCell id="1" parent="0" />
        <mxCell id="fduVPXld4XJoGAduXo-k-44" value="" style="edgeStyle=orthogonalEdgeStyle;rounded=0;orthogonalLoop=1;jettySize=auto;html=1;entryX=0.5;entryY=0;entryDx=0;entryDy=0;" parent="1" source="xW_pJFMf0fGZhS2XBOa9-1" target="fduVPXld4XJoGAduXo-k-42" edge="1">
          <mxGeometry relative="1" as="geometry" />
        </mxCell>
        <mxCell id="xW_pJFMf0fGZhS2XBOa9-1" value="" style="ellipse;whiteSpace=wrap;html=1;aspect=fixed;" parent="1" vertex="1">
          <mxGeometry x="729" y="115" width="50" height="50" as="geometry" />
        </mxCell>
        <mxCell id="xW_pJFMf0fGZhS2XBOa9-2" value="" style="shape=mxgraph.arrows2.wedgeArrow;html=1;bendable=0;startWidth=12.121212121212125;fillColor=strokeColor;defaultFillColor=invert;defaultGradientColor=invert;rounded=0;" parent="1" edge="1">
          <mxGeometry width="100" height="100" relative="1" as="geometry">
            <mxPoint x="754.3" y="132" as="sourcePoint" />
            <mxPoint x="754" y="152" as="targetPoint" />
          </mxGeometry>
        </mxCell>
        <mxCell id="xW_pJFMf0fGZhS2XBOa9-3" value="&lt;div&gt;&lt;br&gt;&lt;/div&gt;e0" style="ellipse;whiteSpace=wrap;html=1;aspect=fixed;" parent="1" vertex="1">
          <mxGeometry x="640" y="188" width="50" height="50" as="geometry" />
        </mxCell>
        <mxCell id="xW_pJFMf0fGZhS2XBOa9-138" value="Легенда:&lt;div&gt;&lt;br&gt;&lt;/div&gt;" style="text;html=1;align=center;verticalAlign=middle;resizable=0;points=[];autosize=1;strokeColor=none;fillColor=none;" parent="1" vertex="1">
          <mxGeometry x="369" y="38" width="70" height="40" as="geometry" />
        </mxCell>
        <mxCell id="xW_pJFMf0fGZhS2XBOa9-139" value="" style="shape=mxgraph.arrows2.wedgeArrow;html=1;bendable=0;startWidth=12.121212121212125;fillColor=strokeColor;defaultFillColor=invert;defaultGradientColor=invert;rounded=0;" parent="1" edge="1">
          <mxGeometry width="100" height="100" relative="1" as="geometry">
            <mxPoint x="374" y="72" as="sourcePoint" />
            <mxPoint x="374" y="98" as="targetPoint" />
          </mxGeometry>
        </mxCell>
        <mxCell id="xW_pJFMf0fGZhS2XBOa9-140" value="начало процесса" style="text;html=1;align=center;verticalAlign=middle;resizable=0;points=[];autosize=1;strokeColor=none;fillColor=none;" parent="1" vertex="1">
          <mxGeometry x="404" y="65" width="120" height="30" as="geometry" />
        </mxCell>
        <mxCell id="xW_pJFMf0fGZhS2XBOa9-142" value="" style="ellipse;whiteSpace=wrap;html=1;aspect=fixed;fillColor=#000000;" parent="1" vertex="1">
          <mxGeometry x="369" y="107" width="10" height="10" as="geometry" />
        </mxCell>
        <mxCell id="xW_pJFMf0fGZhS2XBOa9-143" value="устойчивое состояние" style="text;html=1;align=center;verticalAlign=middle;resizable=0;points=[];autosize=1;strokeColor=none;fillColor=none;" parent="1" vertex="1">
          <mxGeometry x="392" y="95" width="150" height="30" as="geometry" />
        </mxCell>
        <mxCell id="xW_pJFMf0fGZhS2XBOa9-163" value="" style="whiteSpace=wrap;html=1;aspect=fixed;fillColor=#000000;" parent="1" vertex="1">
          <mxGeometry x="369" y="155" width="10" height="10" as="geometry" />
        </mxCell>
        <mxCell id="xW_pJFMf0fGZhS2XBOa9-164" value="&lt;div style=&quot;text-align: center;&quot;&gt;&lt;span style=&quot;background-color: initial; text-wrap: nowrap;&quot;&gt;действие&lt;/span&gt;&lt;/div&gt;" style="text;whiteSpace=wrap;html=1;" parent="1" vertex="1">
          <mxGeometry x="432" y="145" width="70" height="30" as="geometry" />
        </mxCell>
        <mxCell id="xW_pJFMf0fGZhS2XBOa9-169" value="&lt;div&gt;&lt;/div&gt;" style="ellipse;whiteSpace=wrap;html=1;aspect=fixed;" parent="1" vertex="1">
          <mxGeometry x="559" y="115" width="50" height="50" as="geometry" />
        </mxCell>
        <mxCell id="xW_pJFMf0fGZhS2XBOa9-170" value="&lt;span style=&quot;color: rgb(0, 0, 0); font-family: Helvetica; font-size: 12px; font-style: normal; font-variant-ligatures: normal; font-variant-caps: normal; font-weight: 400; letter-spacing: normal; orphans: 2; text-align: center; text-indent: 0px; text-transform: none; widows: 2; word-spacing: 0px; -webkit-text-stroke-width: 0px; white-space: nowrap; background-color: rgb(251, 251, 251); text-decoration-thickness: initial; text-decoration-style: initial; text-decoration-color: initial; display: inline !important; float: none;&quot;&gt;событие&lt;/span&gt;" style="text;whiteSpace=wrap;html=1;" parent="1" vertex="1">
          <mxGeometry x="633" y="120" width="120" height="40" as="geometry" />
        </mxCell>
        <mxCell id="xW_pJFMf0fGZhS2XBOa9-172" value="&lt;div&gt;Состояния:&lt;/div&gt;&lt;div&gt;s0 - Начальное состояние&lt;/div&gt;&lt;div&gt;&lt;span style=&quot;background-color: initial;&quot;&gt;s1 - Фрактал и гистограммы отрисованы&lt;/span&gt;&lt;/div&gt;&lt;div&gt;&lt;br&gt;&lt;/div&gt;&lt;div&gt;Действия:&lt;/div&gt;&lt;div&gt;&lt;div&gt;e0 - запоминание времени начала расчета пикселей фрактала&lt;/div&gt;&lt;div&gt;e1 - расчет пикселей фрактала&lt;/div&gt;&lt;div&gt;e2 - вычисление времени расчета пикселей фрактала&lt;/div&gt;&lt;div&gt;e3 - отрисовка фрактала&lt;/div&gt;&lt;div&gt;e4 - отрисовка гистограммы с временем вычисления фрактала&lt;/div&gt;&lt;div&gt;&lt;div&gt;&lt;br class=&quot;Apple-interchange-newline&quot;&gt;События:&lt;/div&gt;&lt;/div&gt;&lt;/div&gt;&lt;div&gt;p1 - Введено максимальное количество итераций&lt;/div&gt;&lt;div&gt;p2 - Введено масштабирование фрактала&lt;/div&gt;&lt;div&gt;p3 - Введен сдвиг по оси X&lt;/div&gt;&lt;div&gt;p4 - Введен сдвиг по оси Y&lt;/div&gt;&lt;div&gt;p5 - Нажата кнопка &quot;Update fractal&quot;&lt;/div&gt;&lt;div&gt;&lt;br&gt;&lt;/div&gt;&lt;div&gt;&lt;br&gt;&lt;/div&gt;" style="text;html=1;align=center;verticalAlign=middle;whiteSpace=wrap;rounded=0;" parent="1" vertex="1">
          <mxGeometry x="3" y="24" width="321" height="263" as="geometry" />
        </mxCell>
        <mxCell id="IqKIhSBlESduNLT6T-08-1" style="edgeStyle=orthogonalEdgeStyle;rounded=0;orthogonalLoop=1;jettySize=auto;html=1;exitX=0.5;exitY=1;exitDx=0;exitDy=0;" edge="1" parent="1" source="dXv0JQMhBqBQQDPKMbcR-1">
          <mxGeometry relative="1" as="geometry">
            <mxPoint x="443.21212121212125" y="458.3636363636364" as="targetPoint" />
          </mxGeometry>
        </mxCell>
        <mxCell id="dXv0JQMhBqBQQDPKMbcR-1" value="&lt;div&gt;&lt;br&gt;&lt;/div&gt;s1" style="ellipse;whiteSpace=wrap;html=1;aspect=fixed;" parent="1" vertex="1">
          <mxGeometry x="418" y="344" width="50" height="50" as="geometry" />
        </mxCell>
        <mxCell id="dXv0JQMhBqBQQDPKMbcR-84" value="" style="shape=mxgraph.arrows2.wedgeArrow;html=1;bendable=0;startWidth=12.121212121212125;fillColor=strokeColor;defaultFillColor=invert;defaultGradientColor=invert;rounded=0;" parent="1" edge="1">
          <mxGeometry width="100" height="100" relative="1" as="geometry">
            <mxPoint x="562" y="89" as="sourcePoint" />
            <mxPoint x="561.7" y="71" as="targetPoint" />
          </mxGeometry>
        </mxCell>
        <mxCell id="dXv0JQMhBqBQQDPKMbcR-85" value="конец процесса" style="text;html=1;align=center;verticalAlign=middle;resizable=0;points=[];autosize=1;strokeColor=none;fillColor=none;" parent="1" vertex="1">
          <mxGeometry x="599" y="67" width="107" height="26" as="geometry" />
        </mxCell>
        <mxCell id="7AIiSnfdM6uk8qEzwsnY-1" value="" style="ellipse;whiteSpace=wrap;html=1;aspect=fixed;fillColor=#000000;" parent="1" vertex="1">
          <mxGeometry x="438" y="357" width="10" height="10" as="geometry" />
        </mxCell>
        <mxCell id="7AIiSnfdM6uk8qEzwsnY-9" value="" style="whiteSpace=wrap;html=1;aspect=fixed;fillColor=#000000;" parent="1" vertex="1">
          <mxGeometry x="660" y="202" width="10" height="10" as="geometry" />
        </mxCell>
        <mxCell id="fduVPXld4XJoGAduXo-k-2" value="" style="edgeStyle=orthogonalEdgeStyle;rounded=0;orthogonalLoop=1;jettySize=auto;html=1;" parent="1" target="fduVPXld4XJoGAduXo-k-3" edge="1">
          <mxGeometry relative="1" as="geometry">
            <mxPoint x="640" y="213" as="sourcePoint" />
          </mxGeometry>
        </mxCell>
        <mxCell id="fduVPXld4XJoGAduXo-k-3" value="&lt;div&gt;&lt;br&gt;&lt;/div&gt;e1" style="ellipse;whiteSpace=wrap;html=1;aspect=fixed;" parent="1" vertex="1">
          <mxGeometry x="566" y="188" width="50" height="50" as="geometry" />
        </mxCell>
        <mxCell id="fduVPXld4XJoGAduXo-k-4" value="" style="whiteSpace=wrap;html=1;aspect=fixed;fillColor=#000000;" parent="1" vertex="1">
          <mxGeometry x="586" y="202" width="10" height="10" as="geometry" />
        </mxCell>
        <mxCell id="fduVPXld4XJoGAduXo-k-5" value="" style="edgeStyle=orthogonalEdgeStyle;rounded=0;orthogonalLoop=1;jettySize=auto;html=1;" parent="1" target="fduVPXld4XJoGAduXo-k-6" edge="1">
          <mxGeometry relative="1" as="geometry">
            <mxPoint x="566" y="213" as="sourcePoint" />
          </mxGeometry>
        </mxCell>
        <mxCell id="fduVPXld4XJoGAduXo-k-6" value="&lt;div&gt;&lt;br&gt;&lt;/div&gt;e2" style="ellipse;whiteSpace=wrap;html=1;aspect=fixed;" parent="1" vertex="1">
          <mxGeometry x="492" y="188" width="50" height="50" as="geometry" />
        </mxCell>
        <mxCell id="fduVPXld4XJoGAduXo-k-7" value="" style="whiteSpace=wrap;html=1;aspect=fixed;fillColor=#000000;" parent="1" vertex="1">
          <mxGeometry x="512" y="202" width="10" height="10" as="geometry" />
        </mxCell>
        <mxCell id="fduVPXld4XJoGAduXo-k-8" value="" style="edgeStyle=orthogonalEdgeStyle;rounded=0;orthogonalLoop=1;jettySize=auto;html=1;" parent="1" target="fduVPXld4XJoGAduXo-k-9" edge="1">
          <mxGeometry relative="1" as="geometry">
            <mxPoint x="492" y="213" as="sourcePoint" />
          </mxGeometry>
        </mxCell>
        <mxCell id="fduVPXld4XJoGAduXo-k-9" value="&lt;div&gt;&lt;br&gt;&lt;/div&gt;e3" style="ellipse;whiteSpace=wrap;html=1;aspect=fixed;" parent="1" vertex="1">
          <mxGeometry x="418" y="188" width="50" height="50" as="geometry" />
        </mxCell>
        <mxCell id="fduVPXld4XJoGAduXo-k-10" value="" style="whiteSpace=wrap;html=1;aspect=fixed;fillColor=#000000;" parent="1" vertex="1">
          <mxGeometry x="438" y="202" width="10" height="10" as="geometry" />
        </mxCell>
        <mxCell id="fduVPXld4XJoGAduXo-k-46" value="" style="edgeStyle=orthogonalEdgeStyle;rounded=0;orthogonalLoop=1;jettySize=auto;html=1;startArrow=classic;startFill=1;endArrow=none;endFill=0;" parent="1" source="fduVPXld4XJoGAduXo-k-11" target="fduVPXld4XJoGAduXo-k-9" edge="1">
          <mxGeometry relative="1" as="geometry" />
        </mxCell>
        <mxCell id="fduVPXld4XJoGAduXo-k-48" style="edgeStyle=orthogonalEdgeStyle;rounded=0;orthogonalLoop=1;jettySize=auto;html=1;exitX=0.5;exitY=1;exitDx=0;exitDy=0;entryX=0.5;entryY=0;entryDx=0;entryDy=0;" parent="1" source="fduVPXld4XJoGAduXo-k-11" target="dXv0JQMhBqBQQDPKMbcR-1" edge="1">
          <mxGeometry relative="1" as="geometry" />
        </mxCell>
        <mxCell id="fduVPXld4XJoGAduXo-k-11" value="&lt;div&gt;&lt;br&gt;&lt;/div&gt;e4" style="ellipse;whiteSpace=wrap;html=1;aspect=fixed;" parent="1" vertex="1">
          <mxGeometry x="418" y="265" width="50" height="50" as="geometry" />
        </mxCell>
        <mxCell id="fduVPXld4XJoGAduXo-k-12" value="" style="whiteSpace=wrap;html=1;aspect=fixed;fillColor=#000000;" parent="1" vertex="1">
          <mxGeometry x="438" y="277" width="10" height="10" as="geometry" />
        </mxCell>
        <mxCell id="IqKIhSBlESduNLT6T-08-6" style="rounded=0;orthogonalLoop=1;jettySize=auto;html=1;exitX=0.5;exitY=1;exitDx=0;exitDy=0;" edge="1" parent="1" source="fduVPXld4XJoGAduXo-k-15">
          <mxGeometry relative="1" as="geometry">
            <mxPoint x="420.18181818181824" y="458.969696969697" as="targetPoint" />
          </mxGeometry>
        </mxCell>
        <mxCell id="fduVPXld4XJoGAduXo-k-15" value="&lt;div&gt;&lt;br&gt;&lt;/div&gt;p1" style="ellipse;whiteSpace=wrap;html=1;aspect=fixed;" parent="1" vertex="1">
          <mxGeometry x="129" y="344" width="50" height="50" as="geometry" />
        </mxCell>
        <mxCell id="IqKIhSBlESduNLT6T-08-5" style="rounded=0;orthogonalLoop=1;jettySize=auto;html=1;exitX=0.5;exitY=1;exitDx=0;exitDy=0;" edge="1" parent="1" source="fduVPXld4XJoGAduXo-k-16">
          <mxGeometry relative="1" as="geometry">
            <mxPoint x="429.27272727272737" y="458.969696969697" as="targetPoint" />
          </mxGeometry>
        </mxCell>
        <mxCell id="fduVPXld4XJoGAduXo-k-16" value="&lt;div&gt;&lt;br&gt;&lt;/div&gt;p2" style="ellipse;whiteSpace=wrap;html=1;aspect=fixed;" parent="1" vertex="1">
          <mxGeometry x="203" y="344" width="50" height="50" as="geometry" />
        </mxCell>
        <mxCell id="IqKIhSBlESduNLT6T-08-4" style="rounded=0;orthogonalLoop=1;jettySize=auto;html=1;exitX=0.5;exitY=1;exitDx=0;exitDy=0;" edge="1" parent="1" source="fduVPXld4XJoGAduXo-k-17">
          <mxGeometry relative="1" as="geometry">
            <mxPoint x="424.4242424242425" y="458.969696969697" as="targetPoint" />
          </mxGeometry>
        </mxCell>
        <mxCell id="fduVPXld4XJoGAduXo-k-17" value="&lt;div&gt;&lt;br&gt;&lt;/div&gt;p3" style="ellipse;whiteSpace=wrap;html=1;aspect=fixed;" parent="1" vertex="1">
          <mxGeometry x="276" y="344" width="50" height="50" as="geometry" />
        </mxCell>
        <mxCell id="IqKIhSBlESduNLT6T-08-3" style="rounded=0;orthogonalLoop=1;jettySize=auto;html=1;exitX=0.5;exitY=1;exitDx=0;exitDy=0;" edge="1" parent="1" source="fduVPXld4XJoGAduXo-k-18">
          <mxGeometry relative="1" as="geometry">
            <mxPoint x="433.5151515151516" y="458.3636363636364" as="targetPoint" />
          </mxGeometry>
        </mxCell>
        <mxCell id="fduVPXld4XJoGAduXo-k-18" value="&lt;div&gt;&lt;br&gt;&lt;/div&gt;p4" style="ellipse;whiteSpace=wrap;html=1;aspect=fixed;" parent="1" vertex="1">
          <mxGeometry x="348" y="344" width="50" height="50" as="geometry" />
        </mxCell>
        <mxCell id="fduVPXld4XJoGAduXo-k-24" value="" style="endArrow=none;html=1;rounded=0;strokeWidth=5;" parent="1" edge="1">
          <mxGeometry width="50" height="50" relative="1" as="geometry">
            <mxPoint x="415" y="460" as="sourcePoint" />
            <mxPoint x="468" y="460" as="targetPoint" />
          </mxGeometry>
        </mxCell>
        <mxCell id="fduVPXld4XJoGAduXo-k-45" value="" style="edgeStyle=orthogonalEdgeStyle;rounded=0;orthogonalLoop=1;jettySize=auto;html=1;" parent="1" source="fduVPXld4XJoGAduXo-k-42" edge="1">
          <mxGeometry relative="1" as="geometry">
            <mxPoint x="689" y="213" as="targetPoint" />
          </mxGeometry>
        </mxCell>
        <mxCell id="fduVPXld4XJoGAduXo-k-42" value="&lt;div&gt;&lt;br&gt;&lt;/div&gt;s0" style="ellipse;whiteSpace=wrap;html=1;aspect=fixed;" parent="1" vertex="1">
          <mxGeometry x="729" y="188" width="50" height="50" as="geometry" />
        </mxCell>
        <mxCell id="fduVPXld4XJoGAduXo-k-43" value="" style="ellipse;whiteSpace=wrap;html=1;aspect=fixed;fillColor=#000000;" parent="1" vertex="1">
          <mxGeometry x="749" y="201" width="10" height="10" as="geometry" />
        </mxCell>
        <mxCell id="IqKIhSBlESduNLT6T-08-2" style="rounded=0;orthogonalLoop=1;jettySize=auto;html=1;exitX=0.5;exitY=1;exitDx=0;exitDy=0;" edge="1" parent="1" source="fduVPXld4XJoGAduXo-k-49">
          <mxGeometry relative="1" as="geometry">
            <mxPoint x="455.939393939394" y="458.969696969697" as="targetPoint" />
          </mxGeometry>
        </mxCell>
        <mxCell id="fduVPXld4XJoGAduXo-k-49" value="&lt;div&gt;&lt;br&gt;&lt;/div&gt;p5" style="ellipse;whiteSpace=wrap;html=1;aspect=fixed;" parent="1" vertex="1">
          <mxGeometry x="492" y="344" width="50" height="50" as="geometry" />
        </mxCell>
        <mxCell id="fduVPXld4XJoGAduXo-k-56" value="" style="ellipse;whiteSpace=wrap;html=1;aspect=fixed;fillColor=#000000;" parent="1" vertex="1">
          <mxGeometry x="364" y="132" width="10" height="10" as="geometry" />
        </mxCell>
        <mxCell id="fduVPXld4XJoGAduXo-k-57" value="" style="ellipse;whiteSpace=wrap;html=1;aspect=fixed;fillColor=#000000;" parent="1" vertex="1">
          <mxGeometry x="374" y="132" width="10" height="10" as="geometry" />
        </mxCell>
        <mxCell id="fduVPXld4XJoGAduXo-k-59" value="&lt;div style=&quot;text-align: center;&quot;&gt;&lt;span style=&quot;text-wrap-mode: nowrap;&quot;&gt;измененное состояние&lt;/span&gt;&lt;/div&gt;" style="text;whiteSpace=wrap;html=1;" parent="1" vertex="1">
          <mxGeometry x="401" y="122" width="70" height="30" as="geometry" />
        </mxCell>
        <mxCell id="IqKIhSBlESduNLT6T-08-7" value="" style="endArrow=classic;html=1;rounded=0;entryX=1;entryY=0;entryDx=0;entryDy=0;" edge="1" parent="1" target="fduVPXld4XJoGAduXo-k-42">
          <mxGeometry width="50" height="50" relative="1" as="geometry">
            <mxPoint x="442" y="462" as="sourcePoint" />
            <mxPoint x="510" y="281" as="targetPoint" />
            <Array as="points">
              <mxPoint x="442" y="512" />
              <mxPoint x="810" y="512" />
              <mxPoint x="810" y="174" />
              <mxPoint x="772" y="174" />
            </Array>
          </mxGeometry>
        </mxCell>
        <mxCell id="IqKIhSBlESduNLT6T-08-8" value="" style="ellipse;whiteSpace=wrap;html=1;aspect=fixed;fillColor=#000000;" vertex="1" parent="1">
          <mxGeometry x="776" y="160" width="10" height="10" as="geometry" />
        </mxCell>
        <mxCell id="IqKIhSBlESduNLT6T-08-9" value="" style="ellipse;whiteSpace=wrap;html=1;aspect=fixed;fillColor=#000000;" vertex="1" parent="1">
          <mxGeometry x="788" y="160" width="10" height="10" as="geometry" />
        </mxCell>
      </root>
    </mxGraphModel>
  </diagram>
</mxfile>
